<?xml version="1.0" encoding="US-ASCII" standalone="no"?>
<!DOCTYPE svg PUBLIC "-//W3C//DTD SVG 1.1//EN"
  "http://www.w3.org/Graphics/SVG/1.1/DTD/svg11.dtd">
<svg width="800" height="600" xmlns="http://www.w3.org/2000/svg" version="1.1"><g stroke="#0000ff" stroke-opacity="1" stroke-width="5"><animate attributeName="stroke" repeatCount="indefinite" begin="0" dur="7" keyTimes="0;0.142857;0.285714;0.428571;0.571429;0.714286;0.857143;1" values="#ffff00;#0000ff;#ff0000;#800000;#008000;#800080;#008080;#ffff00"/><g fill="#000000" fill-opacity="0"><polygon points="0,0 0,600 800,600 800,0"/></g></g><g transform="translate(0,220)"><animateTransform attributeName="transform" type="translate" repeatCount="indefinite" begin="0" dur="6" keyTimes="0;0.333333;0.666667;1" values="0,220;0,220;0,0;0,220"/><g opacity="0.1"><animate attributeName="opacity" repeatCount="indefinite" begin="0" dur="6" keyTimes="0;0.333333;0.666667;1" values="0.5;0.1;0.9;0.5"/><g fill="#ffff00" fill-opacity="1"><animate attributeName="fill" repeatCount="indefinite" begin="0" dur="7" keyTimes="0;0.142857;0.285714;0.428571;0.571429;0.714286;0.857143;1" values="#008080;#ffff00;#0000ff;#ff0000;#800000;#008000;#800080;#008080"/><g transform="translate(332.5,0)"><animateTransform attributeName="transform" type="translate" repeatCount="indefinite" begin="0" dur="6" keyTimes="0;0.333333;0.666667;1" values="332.5,0;332.5,0;0,0;332.5,0"/><g opacity="0.1"><animate attributeName="opacity" repeatCount="indefinite" begin="0" dur="6" keyTimes="0;0.333333;0.666667;1" values="0.5;0.1;0.9;0.5"/><g fill="#ffff00" fill-opacity="1"><animate attributeName="fill" repeatCount="indefinite" begin="0" dur="7" keyTimes="0;0.142857;0.285714;0.428571;0.571429;0.714286;0.857143;1" values="#008080;#ffff00;#0000ff;#ff0000;#800000;#008000;#800080;#008080"/><g fill="#0000ff" fill-opacity="1"><animate attributeName="fill" repeatCount="indefinite" begin="0" dur="7" keyTimes="0;0.142857;0.285714;0.428571;0.571429;0.714286;0.857143;1" values="#ffff00;#0000ff;#ff0000;#800000;#008000;#800080;#008080;#ffff00"/><g transform="translate(15,-5)"><g transform="scale(0.5,0.5)"><polygon points="-25,100 20,95 40,85 100,125 140,50 225,15 155,175 130,170 125,230 90,290 55,270 40,230 80,205 45,175 30,145 18,115"/></g></g></g></g></g></g><g transform="translate(332.5,0)"><animateTransform attributeName="transform" type="translate" repeatCount="indefinite" begin="0" dur="6" keyTimes="0;0.333333;0.666667;1" values="332.5,0;332.5,0;133,0;332.5,0"/><g opacity="0.1"><animate attributeName="opacity" repeatCount="indefinite" begin="0" dur="6" keyTimes="0;0.333333;0.666667;1" values="0.5;0.1;0.9;0.5"/><g fill="#008080" fill-opacity="1"><animate attributeName="fill" repeatCount="indefinite" begin="0" dur="7" keyTimes="0;0.142857;0.285714;0.428571;0.571429;0.714286;0.857143;1" values="#800080;#008080;#ffff00;#0000ff;#ff0000;#800000;#008000;#800080"/><g fill="#0000ff" fill-opacity="1"><animate attributeName="fill" repeatCount="indefinite" begin="0" dur="7" keyTimes="0;0.142857;0.285714;0.428571;0.571429;0.714286;0.857143;1" values="#ffff00;#0000ff;#ff0000;#800000;#008000;#800080;#008080;#ffff00"/><g transform="translate(15,-5)"><g transform="scale(0.5,0.5)"><polygon points="-25,100 20,95 40,85 100,125 140,50 225,15 155,175 130,170 125,230 90,290 55,270 40,230 80,205 45,175 30,145 18,115"/></g></g></g></g></g></g><g transform="translate(332.5,0)"><animateTransform attributeName="transform" type="translate" repeatCount="indefinite" begin="0" dur="6" keyTimes="0;0.333333;0.666667;1" values="332.5,0;332.5,0;266,0;332.5,0"/><g opacity="0.1"><animate attributeName="opacity" repeatCount="indefinite" begin="0" dur="6" keyTimes="0;0.333333;0.666667;1" values="0.5;0.1;0.9;0.5"/><g fill="#800080" fill-opacity="1"><animate attributeName="fill" repeatCount="indefinite" begin="0" dur="7" keyTimes="0;0.142857;0.285714;0.428571;0.571429;0.714286;0.857143;1" values="#008000;#800080;#008080;#ffff00;#0000ff;#ff0000;#800000;#008000"/><g fill="#0000ff" fill-opacity="1"><animate attributeName="fill" repeatCount="indefinite" begin="0" dur="7" keyTimes="0;0.142857;0.285714;0.428571;0.571429;0.714286;0.857143;1" values="#ffff00;#0000ff;#ff0000;#800000;#008000;#800080;#008080;#ffff00"/><g transform="translate(15,-5)"><g transform="scale(0.5,0.5)"><polygon points="-25,100 20,95 40,85 100,125 140,50 225,15 155,175 130,170 125,230 90,290 55,270 40,230 80,205 45,175 30,145 18,115"/></g></g></g></g></g></g><g transform="translate(332.5,0)"><animateTransform attributeName="transform" type="translate" repeatCount="indefinite" begin="0" dur="6" keyTimes="0;0.333333;0.666667;1" values="332.5,0;332.5,0;399,0;332.5,0"/><g opacity="0.1"><animate attributeName="opacity" repeatCount="indefinite" begin="0" dur="6" keyTimes="0;0.333333;0.666667;1" values="0.5;0.1;0.9;0.5"/><g fill="#008000" fill-opacity="1"><animate attributeName="fill" repeatCount="indefinite" begin="0" dur="7" keyTimes="0;0.142857;0.285714;0.428571;0.571429;0.714286;0.857143;1" values="#800000;#008000;#800080;#008080;#ffff00;#0000ff;#ff0000;#800000"/><g fill="#0000ff" fill-opacity="1"><animate attributeName="fill" repeatCount="indefinite" begin="0" dur="7" keyTimes="0;0.142857;0.285714;0.428571;0.571429;0.714286;0.857143;1" values="#ffff00;#0000ff;#ff0000;#800000;#008000;#800080;#008080;#ffff00"/><g transform="translate(15,-5)"><g transform="scale(0.5,0.5)"><polygon points="-25,100 20,95 40,85 100,125 140,50 225,15 155,175 130,170 125,230 90,290 55,270 40,230 80,205 45,175 30,145 18,115"/></g></g></g></g></g></g><g transform="translate(332.5,0)"><animateTransform attributeName="transform" type="translate" repeatCount="indefinite" begin="0" dur="6" keyTimes="0;0.333333;0.666667;1" values="332.5,0;332.5,0;532,0;332.5,0"/><g opacity="0.1"><animate attributeName="opacity" repeatCount="indefinite" begin="0" dur="6" keyTimes="0;0.333333;0.666667;1" values="0.5;0.1;0.9;0.5"/><g fill="#800000" fill-opacity="1"><animate attributeName="fill" repeatCount="indefinite" begin="0" dur="7" keyTimes="0;0.142857;0.285714;0.428571;0.571429;0.714286;0.857143;1" values="#ff0000;#800000;#008000;#800080;#008080;#ffff00;#0000ff;#ff0000"/><g fill="#0000ff" fill-opacity="1"><animate attributeName="fill" repeatCount="indefinite" begin="0" dur="7" keyTimes="0;0.142857;0.285714;0.428571;0.571429;0.714286;0.857143;1" values="#ffff00;#0000ff;#ff0000;#800000;#008000;#800080;#008080;#ffff00"/><g transform="translate(15,-5)"><g transform="scale(0.5,0.5)"><polygon points="-25,100 20,95 40,85 100,125 140,50 225,15 155,175 130,170 125,230 90,290 55,270 40,230 80,205 45,175 30,145 18,115"/></g></g></g></g></g></g><g transform="translate(332.5,0)"><animateTransform attributeName="transform" type="translate" repeatCount="indefinite" begin="0" dur="6" keyTimes="0;0.333333;0.666667;1" values="332.5,0;332.5,0;665,0;332.5,0"/><g opacity="0.1"><animate attributeName="opacity" repeatCount="indefinite" begin="0" dur="6" keyTimes="0;0.333333;0.666667;1" values="0.5;0.1;0.9;0.5"/><g fill="#ff0000" fill-opacity="1"><animate attributeName="fill" repeatCount="indefinite" begin="0" dur="7" keyTimes="0;0.142857;0.285714;0.428571;0.571429;0.714286;0.857143;1" values="#0000ff;#ff0000;#800000;#008000;#800080;#008080;#ffff00;#0000ff"/><g fill="#0000ff" fill-opacity="1"><animate attributeName="fill" repeatCount="indefinite" begin="0" dur="7" keyTimes="0;0.142857;0.285714;0.428571;0.571429;0.714286;0.857143;1" values="#ffff00;#0000ff;#ff0000;#800000;#008000;#800080;#008080;#ffff00"/><g transform="translate(15,-5)"><g transform="scale(0.5,0.5)"><polygon points="-25,100 20,95 40,85 100,125 140,50 225,15 155,175 130,170 125,230 90,290 55,270 40,230 80,205 45,175 30,145 18,115"/></g></g></g></g></g></g></g></g></g><g transform="translate(0,220)"><animateTransform attributeName="transform" type="translate" repeatCount="indefinite" begin="0" dur="6" keyTimes="0;0.333333;0.666667;1" values="0,220;0,220;0,110;0,220"/><g opacity="0.1"><animate attributeName="opacity" repeatCount="indefinite" begin="0" dur="6" keyTimes="0;0.333333;0.666667;1" values="0.5;0.1;0.9;0.5"/><g fill="#008080" fill-opacity="1"><animate attributeName="fill" repeatCount="indefinite" begin="0" dur="7" keyTimes="0;0.142857;0.285714;0.428571;0.571429;0.714286;0.857143;1" values="#800080;#008080;#ffff00;#0000ff;#ff0000;#800000;#008000;#800080"/><g transform="translate(332.5,0)"><animateTransform attributeName="transform" type="translate" repeatCount="indefinite" begin="0" dur="6" keyTimes="0;0.333333;0.666667;1" values="332.5,0;332.5,0;0,0;332.5,0"/><g opacity="0.1"><animate attributeName="opacity" repeatCount="indefinite" begin="0" dur="6" keyTimes="0;0.333333;0.666667;1" values="0.5;0.1;0.9;0.5"/><g fill="#ffff00" fill-opacity="1"><animate attributeName="fill" repeatCount="indefinite" begin="0" dur="7" keyTimes="0;0.142857;0.285714;0.428571;0.571429;0.714286;0.857143;1" values="#008080;#ffff00;#0000ff;#ff0000;#800000;#008000;#800080;#008080"/><g fill="#0000ff" fill-opacity="1"><animate attributeName="fill" repeatCount="indefinite" begin="0" dur="7" keyTimes="0;0.142857;0.285714;0.428571;0.571429;0.714286;0.857143;1" values="#ffff00;#0000ff;#ff0000;#800000;#008000;#800080;#008080;#ffff00"/><g transform="translate(15,-5)"><g transform="scale(0.5,0.5)"><polygon points="-25,100 20,95 40,85 100,125 140,50 225,15 155,175 130,170 125,230 90,290 55,270 40,230 80,205 45,175 30,145 18,115"/></g></g></g></g></g></g><g transform="translate(332.5,0)"><animateTransform attributeName="transform" type="translate" repeatCount="indefinite" begin="0" dur="6" keyTimes="0;0.333333;0.666667;1" values="332.5,0;332.5,0;133,0;332.5,0"/><g opacity="0.1"><animate attributeName="opacity" repeatCount="indefinite" begin="0" dur="6" keyTimes="0;0.333333;0.666667;1" values="0.5;0.1;0.9;0.5"/><g fill="#008080" fill-opacity="1"><animate attributeName="fill" repeatCount="indefinite" begin="0" dur="7" keyTimes="0;0.142857;0.285714;0.428571;0.571429;0.714286;0.857143;1" values="#800080;#008080;#ffff00;#0000ff;#ff0000;#800000;#008000;#800080"/><g fill="#0000ff" fill-opacity="1"><animate attributeName="fill" repeatCount="indefinite" begin="0" dur="7" keyTimes="0;0.142857;0.285714;0.428571;0.571429;0.714286;0.857143;1" values="#ffff00;#0000ff;#ff0000;#800000;#008000;#800080;#008080;#ffff00"/><g transform="translate(15,-5)"><g transform="scale(0.5,0.5)"><polygon points="-25,100 20,95 40,85 100,125 140,50 225,15 155,175 130,170 125,230 90,290 55,270 40,230 80,205 45,175 30,145 18,115"/></g></g></g></g></g></g><g transform="translate(332.5,0)"><animateTransform attributeName="transform" type="translate" repeatCount="indefinite" begin="0" dur="6" keyTimes="0;0.333333;0.666667;1" values="332.5,0;332.5,0;266,0;332.5,0"/><g opacity="0.1"><animate attributeName="opacity" repeatCount="indefinite" begin="0" dur="6" keyTimes="0;0.333333;0.666667;1" values="0.5;0.1;0.9;0.5"/><g fill="#800080" fill-opacity="1"><animate attributeName="fill" repeatCount="indefinite" begin="0" dur="7" keyTimes="0;0.142857;0.285714;0.428571;0.571429;0.714286;0.857143;1" values="#008000;#800080;#008080;#ffff00;#0000ff;#ff0000;#800000;#008000"/><g fill="#0000ff" fill-opacity="1"><animate attributeName="fill" repeatCount="indefinite" begin="0" dur="7" keyTimes="0;0.142857;0.285714;0.428571;0.571429;0.714286;0.857143;1" values="#ffff00;#0000ff;#ff0000;#800000;#008000;#800080;#008080;#ffff00"/><g transform="translate(15,-5)"><g transform="scale(0.5,0.5)"><polygon points="-25,100 20,95 40,85 100,125 140,50 225,15 155,175 130,170 125,230 90,290 55,270 40,230 80,205 45,175 30,145 18,115"/></g></g></g></g></g></g><g transform="translate(332.5,0)"><animateTransform attributeName="transform" type="translate" repeatCount="indefinite" begin="0" dur="6" keyTimes="0;0.333333;0.666667;1" values="332.5,0;332.5,0;399,0;332.5,0"/><g opacity="0.1"><animate attributeName="opacity" repeatCount="indefinite" begin="0" dur="6" keyTimes="0;0.333333;0.666667;1" values="0.5;0.1;0.9;0.5"/><g fill="#008000" fill-opacity="1"><animate attributeName="fill" repeatCount="indefinite" begin="0" dur="7" keyTimes="0;0.142857;0.285714;0.428571;0.571429;0.714286;0.857143;1" values="#800000;#008000;#800080;#008080;#ffff00;#0000ff;#ff0000;#800000"/><g fill="#0000ff" fill-opacity="1"><animate attributeName="fill" repeatCount="indefinite" begin="0" dur="7" keyTimes="0;0.142857;0.285714;0.428571;0.571429;0.714286;0.857143;1" values="#ffff00;#0000ff;#ff0000;#800000;#008000;#800080;#008080;#ffff00"/><g transform="translate(15,-5)"><g transform="scale(0.5,0.5)"><polygon points="-25,100 20,95 40,85 100,125 140,50 225,15 155,175 130,170 125,230 90,290 55,270 40,230 80,205 45,175 30,145 18,115"/></g></g></g></g></g></g><g transform="translate(332.5,0)"><animateTransform attributeName="transform" type="translate" repeatCount="indefinite" begin="0" dur="6" keyTimes="0;0.333333;0.666667;1" values="332.5,0;332.5,0;532,0;332.5,0"/><g opacity="0.1"><animate attributeName="opacity" repeatCount="indefinite" begin="0" dur="6" keyTimes="0;0.333333;0.666667;1" values="0.5;0.1;0.9;0.5"/><g fill="#800000" fill-opacity="1"><animate attributeName="fill" repeatCount="indefinite" begin="0" dur="7" keyTimes="0;0.142857;0.285714;0.428571;0.571429;0.714286;0.857143;1" values="#ff0000;#800000;#008000;#800080;#008080;#ffff00;#0000ff;#ff0000"/><g fill="#0000ff" fill-opacity="1"><animate attributeName="fill" repeatCount="indefinite" begin="0" dur="7" keyTimes="0;0.142857;0.285714;0.428571;0.571429;0.714286;0.857143;1" values="#ffff00;#0000ff;#ff0000;#800000;#008000;#800080;#008080;#ffff00"/><g transform="translate(15,-5)"><g transform="scale(0.5,0.5)"><polygon points="-25,100 20,95 40,85 100,125 140,50 225,15 155,175 130,170 125,230 90,290 55,270 40,230 80,205 45,175 30,145 18,115"/></g></g></g></g></g></g><g transform="translate(332.5,0)"><animateTransform attributeName="transform" type="translate" repeatCount="indefinite" begin="0" dur="6" keyTimes="0;0.333333;0.666667;1" values="332.5,0;332.5,0;665,0;332.5,0"/><g opacity="0.1"><animate attributeName="opacity" repeatCount="indefinite" begin="0" dur="6" keyTimes="0;0.333333;0.666667;1" values="0.5;0.1;0.9;0.5"/><g fill="#ff0000" fill-opacity="1"><animate attributeName="fill" repeatCount="indefinite" begin="0" dur="7" keyTimes="0;0.142857;0.285714;0.428571;0.571429;0.714286;0.857143;1" values="#0000ff;#ff0000;#800000;#008000;#800080;#008080;#ffff00;#0000ff"/><g fill="#0000ff" fill-opacity="1"><animate attributeName="fill" repeatCount="indefinite" begin="0" dur="7" keyTimes="0;0.142857;0.285714;0.428571;0.571429;0.714286;0.857143;1" values="#ffff00;#0000ff;#ff0000;#800000;#008000;#800080;#008080;#ffff00"/><g transform="translate(15,-5)"><g transform="scale(0.5,0.5)"><polygon points="-25,100 20,95 40,85 100,125 140,50 225,15 155,175 130,170 125,230 90,290 55,270 40,230 80,205 45,175 30,145 18,115"/></g></g></g></g></g></g></g></g></g><g transform="translate(0,220)"><animateTransform attributeName="transform" type="translate" repeatCount="indefinite" begin="0" dur="6" keyTimes="0;0.333333;0.666667;1" values="0,220;0,220;0,220;0,220"/><g opacity="0.1"><animate attributeName="opacity" repeatCount="indefinite" begin="0" dur="6" keyTimes="0;0.333333;0.666667;1" values="0.5;0.1;0.9;0.5"/><g fill="#800080" fill-opacity="1"><animate attributeName="fill" repeatCount="indefinite" begin="0" dur="7" keyTimes="0;0.142857;0.285714;0.428571;0.571429;0.714286;0.857143;1" values="#008000;#800080;#008080;#ffff00;#0000ff;#ff0000;#800000;#008000"/><g transform="translate(332.5,0)"><animateTransform attributeName="transform" type="translate" repeatCount="indefinite" begin="0" dur="6" keyTimes="0;0.333333;0.666667;1" values="332.5,0;332.5,0;0,0;332.5,0"/><g opacity="0.1"><animate attributeName="opacity" repeatCount="indefinite" begin="0" dur="6" keyTimes="0;0.333333;0.666667;1" values="0.5;0.1;0.9;0.5"/><g fill="#ffff00" fill-opacity="1"><animate attributeName="fill" repeatCount="indefinite" begin="0" dur="7" keyTimes="0;0.142857;0.285714;0.428571;0.571429;0.714286;0.857143;1" values="#008080;#ffff00;#0000ff;#ff0000;#800000;#008000;#800080;#008080"/><g fill="#0000ff" fill-opacity="1"><animate attributeName="fill" repeatCount="indefinite" begin="0" dur="7" keyTimes="0;0.142857;0.285714;0.428571;0.571429;0.714286;0.857143;1" values="#ffff00;#0000ff;#ff0000;#800000;#008000;#800080;#008080;#ffff00"/><g transform="translate(15,-5)"><g transform="scale(0.5,0.5)"><polygon points="-25,100 20,95 40,85 100,125 140,50 225,15 155,175 130,170 125,230 90,290 55,270 40,230 80,205 45,175 30,145 18,115"/></g></g></g></g></g></g><g transform="translate(332.5,0)"><animateTransform attributeName="transform" type="translate" repeatCount="indefinite" begin="0" dur="6" keyTimes="0;0.333333;0.666667;1" values="332.5,0;332.5,0;133,0;332.5,0"/><g opacity="0.1"><animate attributeName="opacity" repeatCount="indefinite" begin="0" dur="6" keyTimes="0;0.333333;0.666667;1" values="0.5;0.1;0.9;0.5"/><g fill="#008080" fill-opacity="1"><animate attributeName="fill" repeatCount="indefinite" begin="0" dur="7" keyTimes="0;0.142857;0.285714;0.428571;0.571429;0.714286;0.857143;1" values="#800080;#008080;#ffff00;#0000ff;#ff0000;#800000;#008000;#800080"/><g fill="#0000ff" fill-opacity="1"><animate attributeName="fill" repeatCount="indefinite" begin="0" dur="7" keyTimes="0;0.142857;0.285714;0.428571;0.571429;0.714286;0.857143;1" values="#ffff00;#0000ff;#ff0000;#800000;#008000;#800080;#008080;#ffff00"/><g transform="translate(15,-5)"><g transform="scale(0.5,0.5)"><polygon points="-25,100 20,95 40,85 100,125 140,50 225,15 155,175 130,170 125,230 90,290 55,270 40,230 80,205 45,175 30,145 18,115"/></g></g></g></g></g></g><g transform="translate(332.5,0)"><animateTransform attributeName="transform" type="translate" repeatCount="indefinite" begin="0" dur="6" keyTimes="0;0.333333;0.666667;1" values="332.5,0;332.5,0;266,0;332.5,0"/><g opacity="0.1"><animate attributeName="opacity" repeatCount="indefinite" begin="0" dur="6" keyTimes="0;0.333333;0.666667;1" values="0.5;0.1;0.9;0.5"/><g fill="#800080" fill-opacity="1"><animate attributeName="fill" repeatCount="indefinite" begin="0" dur="7" keyTimes="0;0.142857;0.285714;0.428571;0.571429;0.714286;0.857143;1" values="#008000;#800080;#008080;#ffff00;#0000ff;#ff0000;#800000;#008000"/><g fill="#0000ff" fill-opacity="1"><animate attributeName="fill" repeatCount="indefinite" begin="0" dur="7" keyTimes="0;0.142857;0.285714;0.428571;0.571429;0.714286;0.857143;1" values="#ffff00;#0000ff;#ff0000;#800000;#008000;#800080;#008080;#ffff00"/><g transform="translate(15,-5)"><g transform="scale(0.5,0.5)"><polygon points="-25,100 20,95 40,85 100,125 140,50 225,15 155,175 130,170 125,230 90,290 55,270 40,230 80,205 45,175 30,145 18,115"/></g></g></g></g></g></g><g transform="translate(332.5,0)"><animateTransform attributeName="transform" type="translate" repeatCount="indefinite" begin="0" dur="6" keyTimes="0;0.333333;0.666667;1" values="332.5,0;332.5,0;399,0;332.5,0"/><g opacity="0.1"><animate attributeName="opacity" repeatCount="indefinite" begin="0" dur="6" keyTimes="0;0.333333;0.666667;1" values="0.5;0.1;0.9;0.5"/><g fill="#008000" fill-opacity="1"><animate attributeName="fill" repeatCount="indefinite" begin="0" dur="7" keyTimes="0;0.142857;0.285714;0.428571;0.571429;0.714286;0.857143;1" values="#800000;#008000;#800080;#008080;#ffff00;#0000ff;#ff0000;#800000"/><g fill="#0000ff" fill-opacity="1"><animate attributeName="fill" repeatCount="indefinite" begin="0" dur="7" keyTimes="0;0.142857;0.285714;0.428571;0.571429;0.714286;0.857143;1" values="#ffff00;#0000ff;#ff0000;#800000;#008000;#800080;#008080;#ffff00"/><g transform="translate(15,-5)"><g transform="scale(0.5,0.5)"><polygon points="-25,100 20,95 40,85 100,125 140,50 225,15 155,175 130,170 125,230 90,290 55,270 40,230 80,205 45,175 30,145 18,115"/></g></g></g></g></g></g><g transform="translate(332.5,0)"><animateTransform attributeName="transform" type="translate" repeatCount="indefinite" begin="0" dur="6" keyTimes="0;0.333333;0.666667;1" values="332.5,0;332.5,0;532,0;332.5,0"/><g opacity="0.1"><animate attributeName="opacity" repeatCount="indefinite" begin="0" dur="6" keyTimes="0;0.333333;0.666667;1" values="0.5;0.1;0.9;0.5"/><g fill="#800000" fill-opacity="1"><animate attributeName="fill" repeatCount="indefinite" begin="0" dur="7" keyTimes="0;0.142857;0.285714;0.428571;0.571429;0.714286;0.857143;1" values="#ff0000;#800000;#008000;#800080;#008080;#ffff00;#0000ff;#ff0000"/><g fill="#0000ff" fill-opacity="1"><animate attributeName="fill" repeatCount="indefinite" begin="0" dur="7" keyTimes="0;0.142857;0.285714;0.428571;0.571429;0.714286;0.857143;1" values="#ffff00;#0000ff;#ff0000;#800000;#008000;#800080;#008080;#ffff00"/><g transform="translate(15,-5)"><g transform="scale(0.5,0.5)"><polygon points="-25,100 20,95 40,85 100,125 140,50 225,15 155,175 130,170 125,230 90,290 55,270 40,230 80,205 45,175 30,145 18,115"/></g></g></g></g></g></g><g transform="translate(332.5,0)"><animateTransform attributeName="transform" type="translate" repeatCount="indefinite" begin="0" dur="6" keyTimes="0;0.333333;0.666667;1" values="332.5,0;332.5,0;665,0;332.5,0"/><g opacity="0.1"><animate attributeName="opacity" repeatCount="indefinite" begin="0" dur="6" keyTimes="0;0.333333;0.666667;1" values="0.5;0.1;0.9;0.5"/><g fill="#ff0000" fill-opacity="1"><animate attributeName="fill" repeatCount="indefinite" begin="0" dur="7" keyTimes="0;0.142857;0.285714;0.428571;0.571429;0.714286;0.857143;1" values="#0000ff;#ff0000;#800000;#008000;#800080;#008080;#ffff00;#0000ff"/><g fill="#0000ff" fill-opacity="1"><animate attributeName="fill" repeatCount="indefinite" begin="0" dur="7" keyTimes="0;0.142857;0.285714;0.428571;0.571429;0.714286;0.857143;1" values="#ffff00;#0000ff;#ff0000;#800000;#008000;#800080;#008080;#ffff00"/><g transform="translate(15,-5)"><g transform="scale(0.5,0.5)"><polygon points="-25,100 20,95 40,85 100,125 140,50 225,15 155,175 130,170 125,230 90,290 55,270 40,230 80,205 45,175 30,145 18,115"/></g></g></g></g></g></g></g></g></g><g transform="translate(0,220)"><animateTransform attributeName="transform" type="translate" repeatCount="indefinite" begin="0" dur="6" keyTimes="0;0.333333;0.666667;1" values="0,220;0,220;0,330;0,220"/><g opacity="0.1"><animate attributeName="opacity" repeatCount="indefinite" begin="0" dur="6" keyTimes="0;0.333333;0.666667;1" values="0.5;0.1;0.9;0.5"/><g fill="#008000" fill-opacity="1"><animate attributeName="fill" repeatCount="indefinite" begin="0" dur="7" keyTimes="0;0.142857;0.285714;0.428571;0.571429;0.714286;0.857143;1" values="#800000;#008000;#800080;#008080;#ffff00;#0000ff;#ff0000;#800000"/><g transform="translate(332.5,0)"><animateTransform attributeName="transform" type="translate" repeatCount="indefinite" begin="0" dur="6" keyTimes="0;0.333333;0.666667;1" values="332.5,0;332.5,0;0,0;332.5,0"/><g opacity="0.1"><animate attributeName="opacity" repeatCount="indefinite" begin="0" dur="6" keyTimes="0;0.333333;0.666667;1" values="0.5;0.1;0.9;0.5"/><g fill="#ffff00" fill-opacity="1"><animate attributeName="fill" repeatCount="indefinite" begin="0" dur="7" keyTimes="0;0.142857;0.285714;0.428571;0.571429;0.714286;0.857143;1" values="#008080;#ffff00;#0000ff;#ff0000;#800000;#008000;#800080;#008080"/><g fill="#0000ff" fill-opacity="1"><animate attributeName="fill" repeatCount="indefinite" begin="0" dur="7" keyTimes="0;0.142857;0.285714;0.428571;0.571429;0.714286;0.857143;1" values="#ffff00;#0000ff;#ff0000;#800000;#008000;#800080;#008080;#ffff00"/><g transform="translate(15,-5)"><g transform="scale(0.5,0.5)"><polygon points="-25,100 20,95 40,85 100,125 140,50 225,15 155,175 130,170 125,230 90,290 55,270 40,230 80,205 45,175 30,145 18,115"/></g></g></g></g></g></g><g transform="translate(332.5,0)"><animateTransform attributeName="transform" type="translate" repeatCount="indefinite" begin="0" dur="6" keyTimes="0;0.333333;0.666667;1" values="332.5,0;332.5,0;133,0;332.5,0"/><g opacity="0.1"><animate attributeName="opacity" repeatCount="indefinite" begin="0" dur="6" keyTimes="0;0.333333;0.666667;1" values="0.5;0.1;0.9;0.5"/><g fill="#008080" fill-opacity="1"><animate attributeName="fill" repeatCount="indefinite" begin="0" dur="7" keyTimes="0;0.142857;0.285714;0.428571;0.571429;0.714286;0.857143;1" values="#800080;#008080;#ffff00;#0000ff;#ff0000;#800000;#008000;#800080"/><g fill="#0000ff" fill-opacity="1"><animate attributeName="fill" repeatCount="indefinite" begin="0" dur="7" keyTimes="0;0.142857;0.285714;0.428571;0.571429;0.714286;0.857143;1" values="#ffff00;#0000ff;#ff0000;#800000;#008000;#800080;#008080;#ffff00"/><g transform="translate(15,-5)"><g transform="scale(0.5,0.5)"><polygon points="-25,100 20,95 40,85 100,125 140,50 225,15 155,175 130,170 125,230 90,290 55,270 40,230 80,205 45,175 30,145 18,115"/></g></g></g></g></g></g><g transform="translate(332.5,0)"><animateTransform attributeName="transform" type="translate" repeatCount="indefinite" begin="0" dur="6" keyTimes="0;0.333333;0.666667;1" values="332.5,0;332.5,0;266,0;332.5,0"/><g opacity="0.1"><animate attributeName="opacity" repeatCount="indefinite" begin="0" dur="6" keyTimes="0;0.333333;0.666667;1" values="0.5;0.1;0.9;0.5"/><g fill="#800080" fill-opacity="1"><animate attributeName="fill" repeatCount="indefinite" begin="0" dur="7" keyTimes="0;0.142857;0.285714;0.428571;0.571429;0.714286;0.857143;1" values="#008000;#800080;#008080;#ffff00;#0000ff;#ff0000;#800000;#008000"/><g fill="#0000ff" fill-opacity="1"><animate attributeName="fill" repeatCount="indefinite" begin="0" dur="7" keyTimes="0;0.142857;0.285714;0.428571;0.571429;0.714286;0.857143;1" values="#ffff00;#0000ff;#ff0000;#800000;#008000;#800080;#008080;#ffff00"/><g transform="translate(15,-5)"><g transform="scale(0.5,0.5)"><polygon points="-25,100 20,95 40,85 100,125 140,50 225,15 155,175 130,170 125,230 90,290 55,270 40,230 80,205 45,175 30,145 18,115"/></g></g></g></g></g></g><g transform="translate(332.5,0)"><animateTransform attributeName="transform" type="translate" repeatCount="indefinite" begin="0" dur="6" keyTimes="0;0.333333;0.666667;1" values="332.5,0;332.5,0;399,0;332.5,0"/><g opacity="0.1"><animate attributeName="opacity" repeatCount="indefinite" begin="0" dur="6" keyTimes="0;0.333333;0.666667;1" values="0.5;0.1;0.9;0.5"/><g fill="#008000" fill-opacity="1"><animate attributeName="fill" repeatCount="indefinite" begin="0" dur="7" keyTimes="0;0.142857;0.285714;0.428571;0.571429;0.714286;0.857143;1" values="#800000;#008000;#800080;#008080;#ffff00;#0000ff;#ff0000;#800000"/><g fill="#0000ff" fill-opacity="1"><animate attributeName="fill" repeatCount="indefinite" begin="0" dur="7" keyTimes="0;0.142857;0.285714;0.428571;0.571429;0.714286;0.857143;1" values="#ffff00;#0000ff;#ff0000;#800000;#008000;#800080;#008080;#ffff00"/><g transform="translate(15,-5)"><g transform="scale(0.5,0.5)"><polygon points="-25,100 20,95 40,85 100,125 140,50 225,15 155,175 130,170 125,230 90,290 55,270 40,230 80,205 45,175 30,145 18,115"/></g></g></g></g></g></g><g transform="translate(332.5,0)"><animateTransform attributeName="transform" type="translate" repeatCount="indefinite" begin="0" dur="6" keyTimes="0;0.333333;0.666667;1" values="332.5,0;332.5,0;532,0;332.5,0"/><g opacity="0.1"><animate attributeName="opacity" repeatCount="indefinite" begin="0" dur="6" keyTimes="0;0.333333;0.666667;1" values="0.5;0.1;0.9;0.5"/><g fill="#800000" fill-opacity="1"><animate attributeName="fill" repeatCount="indefinite" begin="0" dur="7" keyTimes="0;0.142857;0.285714;0.428571;0.571429;0.714286;0.857143;1" values="#ff0000;#800000;#008000;#800080;#008080;#ffff00;#0000ff;#ff0000"/><g fill="#0000ff" fill-opacity="1"><animate attributeName="fill" repeatCount="indefinite" begin="0" dur="7" keyTimes="0;0.142857;0.285714;0.428571;0.571429;0.714286;0.857143;1" values="#ffff00;#0000ff;#ff0000;#800000;#008000;#800080;#008080;#ffff00"/><g transform="translate(15,-5)"><g transform="scale(0.5,0.5)"><polygon points="-25,100 20,95 40,85 100,125 140,50 225,15 155,175 130,170 125,230 90,290 55,270 40,230 80,205 45,175 30,145 18,115"/></g></g></g></g></g></g><g transform="translate(332.5,0)"><animateTransform attributeName="transform" type="translate" repeatCount="indefinite" begin="0" dur="6" keyTimes="0;0.333333;0.666667;1" values="332.5,0;332.5,0;665,0;332.5,0"/><g opacity="0.1"><animate attributeName="opacity" repeatCount="indefinite" begin="0" dur="6" keyTimes="0;0.333333;0.666667;1" values="0.5;0.1;0.9;0.5"/><g fill="#ff0000" fill-opacity="1"><animate attributeName="fill" repeatCount="indefinite" begin="0" dur="7" keyTimes="0;0.142857;0.285714;0.428571;0.571429;0.714286;0.857143;1" values="#0000ff;#ff0000;#800000;#008000;#800080;#008080;#ffff00;#0000ff"/><g fill="#0000ff" fill-opacity="1"><animate attributeName="fill" repeatCount="indefinite" begin="0" dur="7" keyTimes="0;0.142857;0.285714;0.428571;0.571429;0.714286;0.857143;1" values="#ffff00;#0000ff;#ff0000;#800000;#008000;#800080;#008080;#ffff00"/><g transform="translate(15,-5)"><g transform="scale(0.5,0.5)"><polygon points="-25,100 20,95 40,85 100,125 140,50 225,15 155,175 130,170 125,230 90,290 55,270 40,230 80,205 45,175 30,145 18,115"/></g></g></g></g></g></g></g></g></g><g transform="translate(0,220)"><animateTransform attributeName="transform" type="translate" repeatCount="indefinite" begin="0" dur="6" keyTimes="0;0.333333;0.666667;1" values="0,220;0,220;0,440;0,220"/><g opacity="0.1"><animate attributeName="opacity" repeatCount="indefinite" begin="0" dur="6" keyTimes="0;0.333333;0.666667;1" values="0.5;0.1;0.9;0.5"/><g fill="#800000" fill-opacity="1"><animate attributeName="fill" repeatCount="indefinite" begin="0" dur="7" keyTimes="0;0.142857;0.285714;0.428571;0.571429;0.714286;0.857143;1" values="#ff0000;#800000;#008000;#800080;#008080;#ffff00;#0000ff;#ff0000"/><g transform="translate(332.5,0)"><animateTransform attributeName="transform" type="translate" repeatCount="indefinite" begin="0" dur="6" keyTimes="0;0.333333;0.666667;1" values="332.5,0;332.5,0;0,0;332.5,0"/><g opacity="0.1"><animate attributeName="opacity" repeatCount="indefinite" begin="0" dur="6" keyTimes="0;0.333333;0.666667;1" values="0.5;0.1;0.9;0.5"/><g fill="#ffff00" fill-opacity="1"><animate attributeName="fill" repeatCount="indefinite" begin="0" dur="7" keyTimes="0;0.142857;0.285714;0.428571;0.571429;0.714286;0.857143;1" values="#008080;#ffff00;#0000ff;#ff0000;#800000;#008000;#800080;#008080"/><g fill="#0000ff" fill-opacity="1"><animate attributeName="fill" repeatCount="indefinite" begin="0" dur="7" keyTimes="0;0.142857;0.285714;0.428571;0.571429;0.714286;0.857143;1" values="#ffff00;#0000ff;#ff0000;#800000;#008000;#800080;#008080;#ffff00"/><g transform="translate(15,-5)"><g transform="scale(0.5,0.5)"><polygon points="-25,100 20,95 40,85 100,125 140,50 225,15 155,175 130,170 125,230 90,290 55,270 40,230 80,205 45,175 30,145 18,115"/></g></g></g></g></g></g><g transform="translate(332.5,0)"><animateTransform attributeName="transform" type="translate" repeatCount="indefinite" begin="0" dur="6" keyTimes="0;0.333333;0.666667;1" values="332.5,0;332.5,0;133,0;332.5,0"/><g opacity="0.1"><animate attributeName="opacity" repeatCount="indefinite" begin="0" dur="6" keyTimes="0;0.333333;0.666667;1" values="0.5;0.1;0.9;0.5"/><g fill="#008080" fill-opacity="1"><animate attributeName="fill" repeatCount="indefinite" begin="0" dur="7" keyTimes="0;0.142857;0.285714;0.428571;0.571429;0.714286;0.857143;1" values="#800080;#008080;#ffff00;#0000ff;#ff0000;#800000;#008000;#800080"/><g fill="#0000ff" fill-opacity="1"><animate attributeName="fill" repeatCount="indefinite" begin="0" dur="7" keyTimes="0;0.142857;0.285714;0.428571;0.571429;0.714286;0.857143;1" values="#ffff00;#0000ff;#ff0000;#800000;#008000;#800080;#008080;#ffff00"/><g transform="translate(15,-5)"><g transform="scale(0.5,0.5)"><polygon points="-25,100 20,95 40,85 100,125 140,50 225,15 155,175 130,170 125,230 90,290 55,270 40,230 80,205 45,175 30,145 18,115"/></g></g></g></g></g></g><g transform="translate(332.5,0)"><animateTransform attributeName="transform" type="translate" repeatCount="indefinite" begin="0" dur="6" keyTimes="0;0.333333;0.666667;1" values="332.5,0;332.5,0;266,0;332.5,0"/><g opacity="0.1"><animate attributeName="opacity" repeatCount="indefinite" begin="0" dur="6" keyTimes="0;0.333333;0.666667;1" values="0.5;0.1;0.9;0.5"/><g fill="#800080" fill-opacity="1"><animate attributeName="fill" repeatCount="indefinite" begin="0" dur="7" keyTimes="0;0.142857;0.285714;0.428571;0.571429;0.714286;0.857143;1" values="#008000;#800080;#008080;#ffff00;#0000ff;#ff0000;#800000;#008000"/><g fill="#0000ff" fill-opacity="1"><animate attributeName="fill" repeatCount="indefinite" begin="0" dur="7" keyTimes="0;0.142857;0.285714;0.428571;0.571429;0.714286;0.857143;1" values="#ffff00;#0000ff;#ff0000;#800000;#008000;#800080;#008080;#ffff00"/><g transform="translate(15,-5)"><g transform="scale(0.5,0.5)"><polygon points="-25,100 20,95 40,85 100,125 140,50 225,15 155,175 130,170 125,230 90,290 55,270 40,230 80,205 45,175 30,145 18,115"/></g></g></g></g></g></g><g transform="translate(332.5,0)"><animateTransform attributeName="transform" type="translate" repeatCount="indefinite" begin="0" dur="6" keyTimes="0;0.333333;0.666667;1" values="332.5,0;332.5,0;399,0;332.5,0"/><g opacity="0.1"><animate attributeName="opacity" repeatCount="indefinite" begin="0" dur="6" keyTimes="0;0.333333;0.666667;1" values="0.5;0.1;0.9;0.5"/><g fill="#008000" fill-opacity="1"><animate attributeName="fill" repeatCount="indefinite" begin="0" dur="7" keyTimes="0;0.142857;0.285714;0.428571;0.571429;0.714286;0.857143;1" values="#800000;#008000;#800080;#008080;#ffff00;#0000ff;#ff0000;#800000"/><g fill="#0000ff" fill-opacity="1"><animate attributeName="fill" repeatCount="indefinite" begin="0" dur="7" keyTimes="0;0.142857;0.285714;0.428571;0.571429;0.714286;0.857143;1" values="#ffff00;#0000ff;#ff0000;#800000;#008000;#800080;#008080;#ffff00"/><g transform="translate(15,-5)"><g transform="scale(0.5,0.5)"><polygon points="-25,100 20,95 40,85 100,125 140,50 225,15 155,175 130,170 125,230 90,290 55,270 40,230 80,205 45,175 30,145 18,115"/></g></g></g></g></g></g><g transform="translate(332.5,0)"><animateTransform attributeName="transform" type="translate" repeatCount="indefinite" begin="0" dur="6" keyTimes="0;0.333333;0.666667;1" values="332.5,0;332.5,0;532,0;332.5,0"/><g opacity="0.1"><animate attributeName="opacity" repeatCount="indefinite" begin="0" dur="6" keyTimes="0;0.333333;0.666667;1" values="0.5;0.1;0.9;0.5"/><g fill="#800000" fill-opacity="1"><animate attributeName="fill" repeatCount="indefinite" begin="0" dur="7" keyTimes="0;0.142857;0.285714;0.428571;0.571429;0.714286;0.857143;1" values="#ff0000;#800000;#008000;#800080;#008080;#ffff00;#0000ff;#ff0000"/><g fill="#0000ff" fill-opacity="1"><animate attributeName="fill" repeatCount="indefinite" begin="0" dur="7" keyTimes="0;0.142857;0.285714;0.428571;0.571429;0.714286;0.857143;1" values="#ffff00;#0000ff;#ff0000;#800000;#008000;#800080;#008080;#ffff00"/><g transform="translate(15,-5)"><g transform="scale(0.5,0.5)"><polygon points="-25,100 20,95 40,85 100,125 140,50 225,15 155,175 130,170 125,230 90,290 55,270 40,230 80,205 45,175 30,145 18,115"/></g></g></g></g></g></g><g transform="translate(332.5,0)"><animateTransform attributeName="transform" type="translate" repeatCount="indefinite" begin="0" dur="6" keyTimes="0;0.333333;0.666667;1" values="332.5,0;332.5,0;665,0;332.5,0"/><g opacity="0.1"><animate attributeName="opacity" repeatCount="indefinite" begin="0" dur="6" keyTimes="0;0.333333;0.666667;1" values="0.5;0.1;0.9;0.5"/><g fill="#ff0000" fill-opacity="1"><animate attributeName="fill" repeatCount="indefinite" begin="0" dur="7" keyTimes="0;0.142857;0.285714;0.428571;0.571429;0.714286;0.857143;1" values="#0000ff;#ff0000;#800000;#008000;#800080;#008080;#ffff00;#0000ff"/><g fill="#0000ff" fill-opacity="1"><animate attributeName="fill" repeatCount="indefinite" begin="0" dur="7" keyTimes="0;0.142857;0.285714;0.428571;0.571429;0.714286;0.857143;1" values="#ffff00;#0000ff;#ff0000;#800000;#008000;#800080;#008080;#ffff00"/><g transform="translate(15,-5)"><g transform="scale(0.5,0.5)"><polygon points="-25,100 20,95 40,85 100,125 140,50 225,15 155,175 130,170 125,230 90,290 55,270 40,230 80,205 45,175 30,145 18,115"/></g></g></g></g></g></g></g></g></g></svg>
